<svg width="83" height="59" viewBox="0 0 83 59" fill="none" xmlns="http://www.w3.org/2000/svg">
<g clip-path="url(#clip0_313_1745)">
<path d="M22.2693 16.8845H29.9684C30.0691 18.2554 29.8175 19.5015 29.2136 20.6231C28.6223 21.7447 27.7983 22.6109 26.7416 23.2215C25.6974 23.8321 24.5526 24.1374 23.3072 24.1374C21.3699 24.1374 19.7407 23.4895 18.4198 22.1934C17.1114 20.8973 16.4573 19.3022 16.4573 17.4079C16.4573 15.5136 17.1114 13.9186 18.4198 12.6225C19.7407 11.3264 21.3699 10.6784 23.3072 10.6784C24.7036 10.6784 25.9365 11.0398 27.0058 11.7626C28.0751 12.473 28.8551 13.3702 29.3457 14.4544L28.0059 15.0152C27.5908 14.1304 26.9617 13.4138 26.1189 12.8655C25.2886 12.3047 24.3514 12.0243 23.3072 12.0243C21.8101 12.0243 20.5458 12.5477 19.5143 13.5945C18.4827 14.6289 17.9669 15.9001 17.9669 17.4079C17.9669 18.9158 18.4827 20.1932 19.5143 21.24C20.5458 22.2744 21.8101 22.7915 23.3072 22.7915C24.7036 22.7915 25.8736 22.3492 26.8171 21.4643C27.7606 20.5671 28.2826 19.4829 28.3833 18.2117H22.2693V16.8845ZM40.3368 23.9505H32.2037V10.8654H40.3368V12.1926H33.6756V16.7537H40.1481V18.0622H33.6756V22.6233H40.3368V23.9505ZM52.1117 23.6514V10.8654H53.5836V23.9505H50.6965L43.9031 11.1831V23.9505H42.4313V10.8654H45.3184L52.1117 23.6514ZM57.4662 23.9505H55.9943V10.8654H57.4662V23.9505ZM59.6939 19.109V10.8654H61.1658V19.109C61.1658 20.1808 61.5307 21.0655 62.2603 21.7634C62.9899 22.4488 63.9272 22.7915 65.072 22.7915C66.2419 22.7915 67.1855 22.4488 67.9025 21.7634C68.6321 21.078 68.997 20.1932 68.997 19.109V10.8654H70.4689V19.109C70.4689 20.5795 69.9594 21.7884 68.9404 22.7354C67.9339 23.6701 66.6446 24.1374 65.072 24.1374C63.4994 24.1374 62.21 23.6701 61.2036 22.7354C60.1971 21.7884 59.6939 20.5795 59.6939 19.109ZM72.4448 20.5857L73.9167 20.2867C74.0425 21.0967 74.401 21.726 74.9923 22.1747C75.5962 22.6109 76.3887 22.8289 77.37 22.8289C78.301 22.8289 79.0558 22.617 79.6344 22.1934C80.2131 21.7697 80.5025 21.2276 80.5025 20.5671C80.5025 20.081 80.3578 19.6698 80.0684 19.3333C79.7917 18.9968 79.4269 18.7351 78.974 18.5482C78.5211 18.3613 78.0179 18.1993 77.4643 18.0622C76.9234 17.9126 76.3762 17.7507 75.8226 17.5762C75.269 17.3892 74.7659 17.1712 74.313 16.9219C73.8601 16.6726 73.489 16.3174 73.1996 15.8564C72.9229 15.3954 72.7845 14.8407 72.7845 14.1927C72.7845 13.1833 73.1996 12.3483 74.0299 11.6878C74.8728 11.0149 75.9295 10.6784 77.2002 10.6784C78.4708 10.6784 79.5212 11.0087 80.3515 11.6692C81.1943 12.3296 81.6976 13.1833 81.8611 14.2301L80.3704 14.5292C80.2572 13.769 79.9111 13.1521 79.3325 12.6786C78.7664 12.205 78.0493 11.9682 77.1813 11.9682C76.3385 11.9682 75.6464 12.1739 75.1055 12.5851C74.5646 12.9964 74.2941 13.5135 74.2941 14.1366C74.2941 14.6102 74.4326 15.0089 74.7093 15.333C74.9987 15.6445 75.3697 15.8875 75.8226 16.062C76.2755 16.224 76.7787 16.3798 77.3322 16.5294C77.8858 16.6665 78.4331 16.8284 78.974 17.0154C79.5275 17.1899 80.0307 17.4079 80.4836 17.6696C80.9365 17.9313 81.3014 18.3052 81.5781 18.7912C81.8675 19.2648 82.0121 19.8443 82.0121 20.5297C82.0121 21.5765 81.5655 22.4426 80.6723 23.128C79.7791 23.801 78.6657 24.1374 77.3322 24.1374C75.9861 24.1374 74.8728 23.8196 73.9922 23.1841C73.1116 22.5485 72.5958 21.6824 72.4448 20.5857Z" fill="#272727"/>
<path d="M27.9399 36.948H21.84V27.1342H27.9399V28.1296H22.9439V31.5504H27.7983V32.5318H22.9439V35.9526H27.9399V36.948ZM35.6105 36.948H29.5107V27.1342H30.6146V35.9526H35.6105V36.948ZM42.8943 36.948H36.7945V27.1342H42.8943V28.1296H37.8984V31.5504H42.7528V32.5318H37.8984V35.9526H42.8943V36.948ZM45.4604 35.6302C44.4791 34.6581 43.9885 33.4618 43.9885 32.0411C43.9885 30.6204 44.4791 29.4241 45.4604 28.452C46.4511 27.48 47.6729 26.994 49.1259 26.994C50.1733 26.994 51.0979 27.265 51.8999 27.8071C52.7019 28.3399 53.2869 29.0128 53.6548 29.826L52.65 30.2466C52.3386 29.5829 51.8669 29.0455 51.2347 28.6343C50.612 28.2137 49.9091 28.0034 49.1259 28.0034C48.0032 28.0034 47.0549 28.3959 46.2812 29.181C45.5076 29.9568 45.1207 30.9102 45.1207 32.0411C45.1207 33.172 45.5076 34.13 46.2812 34.9151C47.0549 35.6909 48.0032 36.0788 49.1259 36.0788C49.9091 36.0788 50.612 35.8732 51.2347 35.4619C51.8669 35.0413 52.3386 34.4992 52.65 33.8356L53.6548 34.2562C53.2869 35.0694 52.7019 35.747 51.8999 36.2891C51.0979 36.8218 50.1733 37.0882 49.1259 37.0882C47.6729 37.0882 46.4511 36.6022 45.4604 35.6302ZM58.2069 36.948H57.1029V28.1296H53.7487V27.1342H61.5611V28.1296H58.2069V36.948ZM66.9712 32.7982L69.8584 36.948H68.528L65.655 32.8262H63.7161V36.948H62.6122V27.1342H66.5608C67.4571 27.1342 68.1931 27.4052 68.7686 27.9473C69.3442 28.4894 69.632 29.1624 69.632 29.9662C69.632 30.7139 69.3866 31.3541 68.896 31.8869C68.4054 32.4103 67.7638 32.714 66.9712 32.7982ZM66.5608 28.1296H63.7161V31.8028H66.5608C67.1269 31.8028 67.5892 31.6298 67.9478 31.284C68.3158 30.9288 68.4997 30.4896 68.4997 29.9662C68.4997 29.4427 68.3158 29.0081 67.9478 28.6623C67.5892 28.3071 67.1269 28.1296 66.5608 28.1296ZM72.0659 35.6302C71.0847 34.6581 70.5941 33.4618 70.5941 32.0411C70.5941 30.6204 71.0847 29.4241 72.0659 28.452C73.0566 27.48 74.2785 26.994 75.7315 26.994C77.1845 26.994 78.4017 27.48 79.3829 28.452C80.3736 29.4241 80.869 30.6204 80.869 32.0411C80.869 33.4618 80.3736 34.6581 79.3829 35.6302C78.4017 36.6022 77.1845 37.0882 75.7315 37.0882C74.2785 37.0882 73.0566 36.6022 72.0659 35.6302ZM72.8868 29.181C72.1131 29.9568 71.7263 30.9102 71.7263 32.0411C71.7263 33.172 72.1131 34.13 72.8868 34.9151C73.6605 35.6909 74.6087 36.0788 75.7315 36.0788C76.8637 36.0788 77.812 35.6909 78.5762 34.9151C79.3499 34.1394 79.7367 33.1814 79.7367 32.0411C79.7367 30.9008 79.3499 29.9428 78.5762 29.167C77.812 28.3913 76.8637 28.0034 75.7315 28.0034C74.6087 28.0034 73.6605 28.3959 72.8868 29.181Z" fill="#272727"/>
<path d="M24.1039 7.08292L25.0621 1.53342L27.3472 1.97154C28.674 4.52723 27.9369 6.57178 26.3152 7.59406L24.1039 7.08292Z" fill="url(#paint0_linear_313_1745)"/>
<path d="M31.6203 3.76521C31.8096 3.77789 31.9632 3.6358 31.9634 3.44784C31.9635 3.25989 31.8102 3.09724 31.6209 3.08456L25.1584 2.65168C24.9691 2.639 24.8155 2.78109 24.8154 2.96904C24.8152 3.157 24.9685 3.31964 25.1578 3.33232L31.6203 3.76521Z" fill="#C9A76B"/>
<path d="M30.3451 4.97182C30.5489 5.00058 30.7285 4.85914 30.7462 4.65591C30.7639 4.45267 30.613 4.26459 30.4091 4.23583L24.7023 3.43065C24.4984 3.40188 24.3188 3.54332 24.3011 3.74656C24.2834 3.9498 24.4343 4.13787 24.6382 4.16664L30.3451 4.97182Z" fill="#EEE5D5"/>
<path d="M30.7576 6.87667C30.9768 6.94128 31.1976 6.81493 31.2505 6.59446C31.3035 6.37399 31.1687 6.14288 30.9494 6.07827L25.0086 4.32785C24.7893 4.26324 24.5686 4.38959 24.5156 4.61006C24.4627 4.83053 24.5975 5.06164 24.8168 5.12625L30.7576 6.87667Z" fill="#EEDDC1"/>
<path d="M29.0404 7.87485C29.1941 7.95255 29.3777 7.88992 29.4506 7.73497C29.5235 7.58001 29.4579 7.39141 29.3042 7.31371L24.7197 4.99619C24.566 4.91849 24.3823 4.98112 24.3094 5.13607C24.2366 5.29103 24.3021 5.47963 24.4558 5.55733L29.0404 7.87485Z" fill="#EACD9A"/>
<path d="M55.0713 55.5942C68.6145 59.3943 85.9497 57.687 80.3266 35.8453C89.4665 66.9037 52.5479 59.6649 37.409 51.8458C-18.0599 23.1968 1.77599 -3.75575 18.3897 1.7261L18.8597 0.347679L27.0124 1.89536C24.7395 3.52848 24.6936 5.40346 25.9419 7.49798L17.4987 5.7255L17.8301 3.90621C-6.96525 1.37459 2.63791 40.8816 55.0713 55.5942Z" fill="url(#paint1_linear_313_1745)"/>
</g>
<defs>
<linearGradient id="paint0_linear_313_1745" x1="27.9369" y1="5.11139" x2="25.0627" y2="4.8138" gradientUnits="userSpaceOnUse">
<stop stop-color="#D8C198"/>
<stop offset="1" stop-color="#C4A87C"/>
</linearGradient>
<linearGradient id="paint1_linear_313_1745" x1="23.6584" y1="4.1452" x2="81.5025" y2="49.521" gradientUnits="userSpaceOnUse">
<stop stop-color="#D8C19A"/>
<stop offset="1" stop-color="#C3974C"/>
</linearGradient>
<clipPath id="clip0_313_1745">
<rect width="83" height="59" fill="white"/>
</clipPath>
</defs>
</svg>
